# xmcd CD database file
#
# Track frame offsets:
#	150
#	28796
#	46890
#	59145
#	85070
#	97680
#	116052
#	131610
#	163065
#	182456
#	198945
#	210768
#	225694
#	243643
#	260406
#	278321
#
# Disc length: 4215 seconds
#
# Revision: 0
# Processed by: cddbd v1.5.1PL2 Copyright (c) Steve Scherf et al.
# Submitted via: CDex 1.51
#
DISCID=d0107510
DTITLE=Harry Harper - TierTodesTransport
DYEAR=1900
DGENRE=Country
TTITLE0=TierTodesTransport
TTITLE1=Alles Tiere wollen Leben
TTITLE2=Mit dem Herzen eines Löwen
TTITLE3=Paulchen liebte seinen Herrn
TTITLE4=Kampfhund
TTITLE5=Es lebe die Dressur
TTITLE6=Das Schlachthaus der weinenden Seelen
TTITLE7=Einsam zieht ein Pferdewagen
TTITLE8=Tiertransport
TTITLE9=Heiha Safari
TTITLE10=Kein Hund war je so treu
TTITLE11=Tanker des Todes
TTITLE12=Leise stirbt der Planet
TTITLE13=Wenn erst die letzte Blume verblüht ist
TTITLE14=Auch ein Tier braucht seinen Frieden
TTITLE15=Geschichten aus dem deutschen Wald
EXTD=
EXTT0=
EXTT1=
EXTT2=
EXTT3=
EXTT4=
EXTT5=
EXTT6=
EXTT7=
EXTT8=
EXTT9=
EXTT10=
EXTT11=
EXTT12=
EXTT13=
EXTT14=
EXTT15=
PLAYORDER=
